<?xml version="1.0" encoding="UTF-8" standalone="no"?>
<!-- Created with Inkscape (http://www.inkscape.org/) -->

<svg
   width="30.592447mm"
   height="28.310419mm"
   viewBox="0 0 30.592447 28.310419"
   version="1.1"
   id="svg1"
   inkscape:version="1.3.2 (091e20e, 2023-11-25, custom)"
   sodipodi:docname="black_queen.svg"
   inkscape:export-filename="black_queen.png"
   inkscape:export-xdpi="93.308403"
   inkscape:export-ydpi="93.308403"
   xmlns:inkscape="http://www.inkscape.org/namespaces/inkscape"
   xmlns:sodipodi="http://sodipodi.sourceforge.net/DTD/sodipodi-0.dtd"
   xmlns="http://www.w3.org/2000/svg"
   xmlns:svg="http://www.w3.org/2000/svg">
  <sodipodi:namedview
     id="namedview1"
     pagecolor="#ffffff"
     bordercolor="#666666"
     borderopacity="1.0"
     inkscape:showpageshadow="2"
     inkscape:pageopacity="0.0"
     inkscape:pagecheckerboard="0"
     inkscape:deskcolor="#d1d1d1"
     inkscape:document-units="mm"
     inkscape:zoom="0.80087682"
     inkscape:cx="249.10198"
     inkscape:cy="305.29039"
     inkscape:window-width="1269"
     inkscape:window-height="791"
     inkscape:window-x="196"
     inkscape:window-y="282"
     inkscape:window-maximized="0"
     inkscape:current-layer="layer1" />
  <defs
     id="defs1">
    <rect
       x="141.09537"
       y="221.00777"
       width="282.1907"
       height="283.43933"
       id="rect1" />
    <rect
       x="141.09537"
       y="221.00777"
       width="282.1907"
       height="283.43933"
       id="rect1-0" />
  </defs>
  <g
     inkscape:label="Layer 1"
     inkscape:groupmode="layer"
     id="layer1"
     transform="translate(-38.985217,-67.87676)">
    <path
       id="path8"
       style="font-size:128px;line-height:1.25;font-family:'Chess Merida Unicode';-inkscape-font-specification:'Chess Merida Unicode, Normal';font-variant-ligatures:none;white-space:pre;fill:#ffffff;stroke-width:0.264583"
       d="m 54.264904,67.87676 c -0.628385,0 -1.163066,0.22049 -1.604036,0.66146 -0.429948,0.44097 -0.644922,0.97014 -0.644922,1.5875 0,0.62838 0.214974,1.16306 0.644922,1.60403 0.44097,0.44098 0.975651,0.66146 1.604036,0.66146 0.61736,0 1.146527,-0.22048 1.5875,-0.66146 0.451996,-0.44097 0.677995,-0.97565 0.677995,-1.60403 0,-0.61736 -0.225999,-1.14653 -0.677995,-1.5875 -0.440973,-0.44097 -0.97014,-0.66146 -1.5875,-0.66146 z m -6.945312,0.84336 c -0.628386,0 -1.163066,0.22049 -1.604037,0.66146 -0.440973,0.44097 -0.661458,0.97014 -0.661458,1.5875 0,0.62838 0.220485,1.16306 0.661458,1.60403 0.440971,0.42995 0.975651,0.64493 1.604037,0.64493 0.61736,0 1.146527,-0.21498 1.5875,-0.64493 0.44097,-0.44097 0.661458,-0.97565 0.661458,-1.60403 0,-0.61736 -0.220488,-1.14653 -0.661458,-1.5875 -0.440973,-0.44097 -0.97014,-0.66146 -1.5875,-0.66146 z m 13.890625,0 c -0.628386,0 -1.163066,0.22049 -1.604037,0.66146 -0.429948,0.44097 -0.644922,0.97014 -0.644922,1.5875 0,0.62838 0.214974,1.16306 0.644922,1.60403 0.440971,0.42995 0.975651,0.64493 1.604037,0.64493 0.628385,0 1.163063,-0.21498 1.604036,-0.64493 0.44097,-0.44097 0.661458,-0.97565 0.661458,-1.60403 0,-0.61736 -0.220488,-1.14653 -0.661458,-1.5875 -0.440973,-0.44097 -0.975651,-0.66146 -1.604036,-0.66146 z m -19.976042,1.80247 c -0.628385,0 -1.163066,0.226 -1.604036,0.678 -0.429948,0.44097 -0.644922,0.97014 -0.644922,1.5875 0,0.62838 0.214974,1.16306 0.644922,1.60403 0.44097,0.42995 0.975651,0.64493 1.604036,0.64493 0.628386,0 1.163063,-0.21498 1.604037,-0.64493 0.44097,-0.44097 0.661458,-0.97565 0.661458,-1.60403 0,-0.61736 -0.220488,-1.14653 -0.661458,-1.5875 -0.440974,-0.452 -0.975651,-0.678 -1.604037,-0.678 z m 26.094531,0 c -0.628385,0 -1.163063,0.226 -1.604036,0.678 -0.440971,0.44097 -0.661459,0.97014 -0.661459,1.5875 0,0.62838 0.220488,1.16306 0.661459,1.60403 0.440973,0.42995 0.975651,0.64493 1.604036,0.64493 0.61736,0 1.14653,-0.21498 1.5875,-0.64493 0.440973,-0.44097 0.661458,-0.97565 0.661458,-1.60403 0,-0.61736 -0.220485,-1.14653 -0.661458,-1.5875 -0.44097,-0.452 -0.97014,-0.678 -1.5875,-0.678 z m -13.626041,1.88516 -1.852084,9.83919 -3.45612,-9.14466 -1.124479,0.19844 -0.09922,9.09505 -4.53099,-7.63984 -0.810286,0.31419 1.405599,10.28568 1.455208,2.53007 0.463021,2.59623 -1.041797,3.96875 c 0.496094,0.49609 1.692232,0.9095 3.588411,1.24023 1.896179,0.33073 4.095533,0.4961 6.598047,0.4961 2.458418,0 4.630211,-0.15985 6.515365,-0.47956 1.885153,-0.31971 3.097831,-0.71658 3.63802,-1.19063 l -1.074869,-4.01836 0.46302,-2.62929 1.471745,-2.53008 1.372526,-10.23607 -0.777213,-0.3638 -4.547526,7.65638 -0.09922,-9.09505 -1.141016,-0.19844 -3.423047,9.11159 -1.852083,-9.80612 z" />
    <text
       xml:space="preserve"
       transform="scale(0.26458333)"
       id="text1"
       style="font-size:128px;line-height:1.25;font-family:'Chess Merida Unicode';-inkscape-font-specification:'Chess Merida Unicode, Normal';font-variant-ligatures:none;white-space:pre;shape-inside:url(#rect1);display:inline"><tspan
         x="141.0957"
         y="348.6046"
         id="tspan2">♛</tspan></text>
  </g>
</svg>
