<?xml version="1.0" encoding="UTF-8" standalone="no"?>
<!-- Created with Inkscape (http://www.inkscape.org/) -->

<svg
   width="27.086718mm"
   height="27.121698mm"
   viewBox="0 0 27.086718 27.121698"
   version="1.1"
   id="svg1"
   inkscape:export-filename="black_bishop.png"
   inkscape:export-xdpi="97.398026"
   inkscape:export-ydpi="97.398026"
   inkscape:version="1.3.2 (091e20e, 2023-11-25, custom)"
   sodipodi:docname="black_bishop.svg"
   xmlns:inkscape="http://www.inkscape.org/namespaces/inkscape"
   xmlns:sodipodi="http://sodipodi.sourceforge.net/DTD/sodipodi-0.dtd"
   xmlns="http://www.w3.org/2000/svg"
   xmlns:svg="http://www.w3.org/2000/svg">
  <sodipodi:namedview
     id="namedview1"
     pagecolor="#ffffff"
     bordercolor="#666666"
     borderopacity="1.0"
     inkscape:showpageshadow="2"
     inkscape:pageopacity="0.0"
     inkscape:pagecheckerboard="0"
     inkscape:deskcolor="#d1d1d1"
     inkscape:document-units="mm"
     inkscape:zoom="4.8"
     inkscape:cx="59.895833"
     inkscape:cy="47.8125"
     inkscape:window-width="1269"
     inkscape:window-height="1061"
     inkscape:window-x="239"
     inkscape:window-y="23"
     inkscape:window-maximized="0"
     inkscape:current-layer="layer1" />
  <defs
     id="defs1">
    <rect
       x="192.28925"
       y="279.69345"
       width="333.38461"
       height="473.23132"
       id="rect1" />
    <rect
       x="192.28925"
       y="279.69345"
       width="333.38461"
       height="473.23132"
       id="rect1-6" />
    <rect
       x="192.28925"
       y="279.69345"
       width="333.38461"
       height="473.23132"
       id="rect1-9" />
  </defs>
  <g
     inkscape:label="Layer 1"
     inkscape:groupmode="layer"
     id="layer1"
     transform="translate(-89.164583,-165.89375)">
    <path
       id="path5"
       style="font-size:128px;line-height:1.25;font-family:'Chess Merida Unicode';-inkscape-font-specification:'Chess Merida Unicode, Normal';font-variant-ligatures:none;white-space:pre;fill:#ffffff"
       d="m 256.28906,317.79015 c -2.37499,0 -4.39583,0.83333 -6.0625,2.5 -1.625,1.66666 -2.4375,3.66666 -2.4375,6 0,3.45833 1.54167,5.97916 4.625,7.5625 -2.45833,2.83333 -4.9375,5.3125 -7.4375,7.4375 -2.49999,2.12499 -5.0625,4.1875 -7.6875,6.1875 -3.16666,2.37499 -5.33333,5.08333 -6.5,8.125 -1.125,2.99999 -1.70833,5.75 -1.75,8.25 -0.0417,1.41666 0.0833,3.02083 0.375,4.8125 0.33334,1.79166 1.04167,3.64583 2.125,5.5625 0.75,1.49999 1.77084,2.83333 3.0625,4 1.29167,1.125 3.56251,2.625 6.8125,4.5 l -6.5,16.125 c 1.75,0.66666 3.77084,1.3125 6.0625,1.9375 2.29167,0.58333 4.54167,1 6.75,1.25 -1,1.29166 -2,2.27083 -3,2.9375 -1,0.66666 -1.72916,1.125 -2.1875,1.375 -0.875,0.5 -2.5625,0.75 -5.0625,0.75 -2.29166,-0.33334 -4.58333,-0.64584 -6.875,-0.9375 -2.25,-0.33334 -4.5,-0.6875 -6.75,-1.0625 -1.20833,0.125 -2.375,0.16666 -3.5,0.125 -1.125,-0.0417 -2.27083,-0.0208 -3.4375,0.0625 -2.74999,0.25 -5.33333,0.9375 -7.75,2.0625 -0.79166,0.375 -1.47916,0.72916 -2.0625,1.0625 -0.58333,0.33333 -1.25,0.91666 -2,1.75 l 6.0625,9.9375 c 0.75,-0.75 1.79167,-1.33334 3.125,-1.75 1.375,-0.375 2.5,-0.5625 3.375,-0.5625 0.5,0 1.02084,-0.0417 1.5625,-0.125 0.58334,-0.0833 1.22917,-0.0833 1.9375,0 l 17.5625,2.4375 c 2.5,0.375 4.77084,0.1875 6.8125,-0.5625 2.04167,-0.70834 3.8125,-1.58334 5.3125,-2.625 1.375,-1 2.47917,-1.95834 3.3125,-2.875 0.83334,-0.91667 1.54167,-2.56251 2.125,-4.9375 0.54167,2.37499 1.20834,3.95833 2,4.75 0.83334,0.83333 1.9375,1.8125 3.3125,2.9375 1.375,1.16666 3.12501,2.10416 5.25,2.8125 2.16667,0.70833 4.50001,0.875 7,0.5 l 17.5,-2.4375 c 0.70834,-0.0833 1.33334,-0.0833 1.875,0 0.58334,0.0833 1.14584,0.125 1.6875,0.125 0.83334,0 1.91667,0.1875 3.25,0.5625 1.375,0.41666 2.4375,1 3.1875,1.75 l 6.125,-9.9375 c -0.75,-0.83334 -1.4375,-1.41667 -2.0625,-1.75 -0.58333,-0.33334 -1.25,-0.6875 -2,-1.0625 -2.49999,-1.125 -5.08333,-1.8125 -7.75,-2.0625 -1.20833,-0.0833 -2.39583,-0.10417 -3.5625,-0.0625 -1.125,0.0417 -2.25,0 -3.375,-0.125 -2.29166,0.375 -4.58333,0.72916 -6.875,1.0625 -2.24999,0.29166 -4.5,0.60416 -6.75,0.9375 -2.49999,0 -4.1875,-0.25 -5.0625,-0.75 -0.5,-0.25 -1.25,-0.70834 -2.25,-1.375 -1,-0.66667 -1.97916,-1.64584 -2.9375,-2.9375 2.125,-0.25 4.33334,-0.66667 6.625,-1.25 2.29167,-0.625 4.35417,-1.27084 6.1875,-1.9375 l -6.5,-16.125 c 3.20833,-1.875 5.4375,-3.375 6.6875,-4.5 1.29167,-1.16667 2.35417,-2.50001 3.1875,-4 1.04167,-1.91667 1.70834,-3.77084 2,-5.5625 0.29167,-1.79167 0.4375,-3.39584 0.4375,-4.8125 -0.0833,-2.5 -0.6875,-5.25001 -1.8125,-8.25 -1.125,-3.04167 -3.25,-5.75001 -6.375,-8.125 -2.70833,-2 -5.3125,-4.06251 -7.8125,-6.1875 -2.45833,-2.125 -4.89583,-4.60417 -7.3125,-7.4375 3.08333,-1.625 4.625,-4.14584 4.625,-7.5625 0,-2.33334 -0.83333,-4.33334 -2.5,-6 -1.66666,-1.66667 -3.66667,-2.5 -6,-2.5 z"
       transform="matrix(0.26458333,0,0,0.26458333,34.898129,81.811775)" />
    <text
       xml:space="preserve"
       transform="matrix(0.26458333,0,0,0.26458333,34.898128,81.811777)"
       id="text1"
       style="font-size:128px;line-height:1.25;font-family:'Chess Merida Unicode';-inkscape-font-specification:'Chess Merida Unicode, Normal';font-variant-ligatures:none;white-space:pre;shape-inside:url(#rect1)"><tspan
         x="192.28906"
         y="407.29014"
         id="tspan2">♝</tspan></text>
  </g>
</svg>
