<?xml version="1.0" encoding="UTF-8" standalone="no"?>
<!-- Created with Inkscape (http://www.inkscape.org/) -->

<svg
   width="28.178127mm"
   height="27.814325mm"
   viewBox="0 0 28.178127 27.814325"
   version="1.1"
   id="svg1"
   inkscape:version="1.3.2 (091e20e, 2023-11-25, custom)"
   sodipodi:docname="black_knight.svg"
   inkscape:export-filename="black_knight.png"
   inkscape:export-xdpi="93.150002"
   inkscape:export-ydpi="93.150002"
   xmlns:inkscape="http://www.inkscape.org/namespaces/inkscape"
   xmlns:sodipodi="http://sodipodi.sourceforge.net/DTD/sodipodi-0.dtd"
   xmlns="http://www.w3.org/2000/svg"
   xmlns:svg="http://www.w3.org/2000/svg">
  <sodipodi:namedview
     id="namedview1"
     pagecolor="#ffffff"
     bordercolor="#666666"
     borderopacity="1.0"
     inkscape:showpageshadow="2"
     inkscape:pageopacity="0.0"
     inkscape:pagecheckerboard="0"
     inkscape:deskcolor="#d1d1d1"
     inkscape:document-units="mm"
     inkscape:zoom="4.8"
     inkscape:cx="59.6875"
     inkscape:cy="50.9375"
     inkscape:window-width="1269"
     inkscape:window-height="657"
     inkscape:window-x="476"
     inkscape:window-y="434"
     inkscape:window-maximized="0"
     inkscape:current-layer="layer1" />
  <defs
     id="defs1">
    <rect
       x="223.50504"
       y="181.05156"
       width="350.86545"
       height="454.50186"
       id="rect1" />
    <rect
       x="223.50504"
       y="181.05156"
       width="350.86545"
       height="454.50186"
       id="rect1-5" />
  </defs>
  <g
     inkscape:label="Layer 1"
     inkscape:groupmode="layer"
     id="layer1"
     transform="translate(-61.987858,-57.46659)">
    <path
       id="path6"
       style="font-size:128px;line-height:1.25;font-family:'Chess Merida Unicode';-inkscape-font-specification:'Chess Merida Unicode, Normal';font-variant-ligatures:none;white-space:pre;fill:#ffffff;fill-opacity:1;stroke-width:0.264583"
       d="m 67.196843,57.46659 c -0.110242,1.708767 0.12678,3.367929 0.711067,4.977474 -0.187412,0.187415 -0.341751,0.35278 -0.46302,0.496094 -0.09922,0.121269 -0.181902,0.220488 -0.248047,0.297656 -0.06615,0.06615 -0.148828,0.165365 -0.248047,0.297657 -0.132292,0.165364 -0.225997,0.292145 -0.28112,0.380338 -0.04409,0.07717 -0.137803,0.225999 -0.28112,0.446485 -0.20946,0.319706 -0.347265,0.650435 -0.413411,0.992187 -0.07717,0.496094 -0.115755,0.942581 -0.115755,1.339453 -0.08819,0.915017 -0.804776,2.248961 -2.14974,4.001823 -1.146527,1.521354 -1.719792,2.745055 -1.719792,3.671094 0,0.650435 0.08268,1.256773 0.248047,1.81901 0.17639,0.56224 0.545706,1.124482 1.107943,1.686719 0.275608,0.264583 0.722093,0.512633 1.339453,0.74414 0.363802,0.02205 0.777216,-0.03307 1.240234,-0.165364 0.341755,0.628385 0.821312,0.926042 1.438672,0.892969 0.396875,-0.02205 0.700045,-0.137803 0.909505,-0.347266 0.154342,-0.154339 0.341755,-0.44097 0.56224,-0.859896 0.418925,-0.793747 0.666972,-1.240234 0.744141,-1.339453 1.047308,-1.587497 2.739543,-2.800173 5.076692,-3.638021 0.485071,-0.20946 0.931556,-0.479557 1.339453,-0.810286 0.0441,0.628385 -0.07717,1.32843 -0.363802,2.10013 -0.275606,0.771702 -0.661458,1.411113 -1.157552,1.918229 -0.859893,0.892969 -1.620573,1.681208 -2.282031,2.364714 -0.661456,0.672483 -1.080381,1.185113 -1.256771,1.53789 -0.38585,0.694531 -0.661458,1.284333 -0.826823,1.769404 -0.165364,0.485068 -0.270094,0.859896 -0.314192,1.124479 -0.06615,0.330727 -0.10473,0.766188 -0.115756,1.30638 0,0.540189 0.04961,0.810287 0.148828,0.810287 h 11.095964 6.664195 2.579688 v -3.604948 c 0,-1.477256 -0.06064,-3.081298 -0.181901,-4.812112 -0.110244,-1.741837 -0.385853,-3.400999 -0.826823,-4.977474 -0.385853,-1.355987 -0.903994,-2.640322 -1.554427,-3.852995 -0.639411,-1.21267 -1.32292,-2.248958 -2.050521,-3.108854 -1.036286,-1.223695 -2.293059,-2.22691 -3.770315,-3.009635 -1.477254,-0.782725 -3.081295,-1.229209 -4.81211,-1.339453 -0.518141,-1.014236 -1.218186,-1.830036 -2.10013,-2.447396 -1.069356,0.771702 -1.785937,1.780429 -2.149739,3.026172 -1.488279,-1.675691 -3.329342,-2.904906 -5.523177,-3.687631 z" />
    <text
       xml:space="preserve"
       transform="scale(0.26458333)"
       id="text1"
       style="font-size:128px;line-height:1.25;font-family:'Chess Merida Unicode';-inkscape-font-specification:'Chess Merida Unicode, Normal';font-variant-ligatures:none;white-space:pre;shape-inside:url(#rect1);display:inline"><tspan
         x="223.50586"
         y="308.64756"
         id="tspan2">♞</tspan></text>
  </g>
</svg>
