<?xml version="1.0" encoding="UTF-8" standalone="no"?>
<!-- Created with Inkscape (http://www.inkscape.org/) -->

<svg
   width="28.497946mm"
   height="28.21125mm"
   viewBox="0 0 28.497946 28.21125"
   version="1.1"
   id="svg1"
   inkscape:version="1.3.2 (091e20e, 2023-11-25, custom)"
   sodipodi:docname="black_king.svg"
   inkscape:export-filename="black_king.png"
   inkscape:export-xdpi="95.437103"
   inkscape:export-ydpi="95.437103"
   xmlns:inkscape="http://www.inkscape.org/namespaces/inkscape"
   xmlns:sodipodi="http://sodipodi.sourceforge.net/DTD/sodipodi-0.dtd"
   xmlns="http://www.w3.org/2000/svg"
   xmlns:svg="http://www.w3.org/2000/svg">
  <sodipodi:namedview
     id="namedview1"
     pagecolor="#ffffff"
     bordercolor="#666666"
     borderopacity="1.0"
     inkscape:showpageshadow="2"
     inkscape:pageopacity="0.0"
     inkscape:pagecheckerboard="0"
     inkscape:deskcolor="#d1d1d1"
     inkscape:document-units="mm"
     inkscape:zoom="0.80087682"
     inkscape:cx="128.60904"
     inkscape:cy="290.30682"
     inkscape:window-width="1269"
     inkscape:window-height="1019"
     inkscape:window-x="544"
     inkscape:window-y="68"
     inkscape:window-maximized="0"
     inkscape:current-layer="layer1" />
  <defs
     id="defs1" />
  <g
     inkscape:label="Layer 1"
     inkscape:groupmode="layer"
     id="layer1"
     transform="translate(-71.06679,-71.729331)">
    <path
       id="path9"
       style="font-size:33.8667px;line-height:1.25;font-family:'Chess Merida Unicode';-inkscape-font-specification:'Chess Merida Unicode, Normal';font-variant-ligatures:none;fill:#ffffff;stroke-width:0.264583"
       d="m 85.319327,71.729331 c -0.396875,0 -0.595313,0.19293 -0.595313,0.57878 v 1.4056 h -1.372526 c -0.374826,0 -0.56224,0.1819 -0.56224,0.5457 v 0.0165 c 0,0.36381 0.187414,0.5457 0.56224,0.5457 h 1.372526 v 2.16628 h 1.174089 l 0.01654,-2.14974 1.405599,-0.0165 c 0.363802,0 0.545703,-0.18189 0.545703,-0.5457 v -0.0165 c 0,-0.3638 -0.181901,-0.5457 -0.545703,-0.5457 h -1.422135 v -1.4056 c 0,-0.38585 -0.192926,-0.57878 -0.578776,-0.57878 z m 0,5.30821 c -0.859896,0.011 -1.598525,0.3197 -2.215886,0.92604 -0.606337,0.60633 -0.909505,1.33945 -0.909505,2.19935 0,0.2315 0.02756,0.46302 0.08268,0.69453 -0.132291,-0.0882 -0.286631,-0.17639 -0.463021,-0.26458 -0.330729,-0.1323 -0.66697,-0.25908 -1.008724,-0.38034 -0.330729,-0.1323 -0.655946,-0.26458 -0.975651,-0.39688 -0.981163,-0.30864 -1.835547,-0.48503 -2.563151,-0.52916 -1.951302,-0.0772 -3.500217,0.51263 -4.646744,1.7694 -1.135504,1.25677 -1.648134,2.51905 -1.537891,3.78685 0.07717,1.31189 0.451996,2.43086 1.124479,3.3569 0.220486,0.29766 0.46302,0.57326 0.727604,0.82682 0.275607,0.25356 0.655946,0.58429 1.141016,0.99219 0.341754,0.30868 0.63941,0.52916 0.892969,0.66146 0.264585,0.12126 0.424437,0.22049 0.479557,0.29765 0.02205,0.0441 0.03858,0.0662 0.04961,0.0662 l 0.545703,3.09232 -1.091406,4.03489 c 0.496094,0.50712 1.71428,0.92605 3.654557,1.25677 1.940278,0.34176 4.189237,0.51263 6.746875,0.51263 2.513542,0 4.729428,-0.15985 6.647657,-0.47955 1.918229,-0.3197 3.152951,-0.7276 3.704166,-1.2237 l -1.091406,-4.08451 0.529167,-3.10885 c 0,-0.0111 0.0055,-0.0221 0.01654,-0.0331 0.01102,-0.011 0.02205,-0.0275 0.03307,-0.0496 0.0441,-0.0772 0.192925,-0.17639 0.446485,-0.29766 0.253559,-0.13229 0.562234,-0.35278 0.926045,-0.66146 0.46302,-0.39687 0.83233,-0.72209 1.10794,-0.97565 0.27561,-0.26459 0.52365,-0.54571 0.74414,-0.84336 0.67249,-0.92605 1.05282,-2.04501 1.14102,-3.3569 0.07716,-1.26779 -0.44098,-2.53008 -1.55443,-3.78685 -1.13551,-1.26779 -2.678908,-1.85759 -4.63021,-1.7694 -0.760678,0.0441 -1.615061,0.226 -2.563151,0.5457 -0.826823,0.29766 -1.493794,0.55673 -2.000912,0.77722 -0.143316,0.0661 -0.292144,0.14882 -0.446484,0.24804 0.0441,-0.28663 0.06615,-0.51814 0.06615,-0.69453 0,-0.84887 -0.303169,-1.57648 -0.909506,-2.18281 -0.606336,-0.61737 -1.339453,-0.92604 -2.199348,-0.92604 z" />
    <text
       xml:space="preserve"
       style="font-size:33.8667px;line-height:1.25;font-family:'Chess Merida Unicode';-inkscape-font-specification:'Chess Merida Unicode, Normal';font-variant-ligatures:none;stroke-width:0.264583"
       x="68.385979"
       y="95.80645"
       id="text1"><tspan
         sodipodi:role="line"
         id="tspan1"
         style="stroke-width:0.264583"
         x="68.385979"
         y="95.80645">♚</tspan></text>
  </g>
</svg>
