<?xml version="1.0" encoding="UTF-8" standalone="no"?>
<!-- Created with Inkscape (http://www.inkscape.org/) -->

<svg
   width="28.178125mm"
   height="27.814325mm"
   viewBox="0 0 28.178125 27.814325"
   version="1.1"
   id="svg1"
   inkscape:version="1.3.2 (091e20e, 2023-11-25, custom)"
   sodipodi:docname="white_knight.svg"
   inkscape:export-filename="white_knight.png"
   inkscape:export-xdpi="93.150002"
   inkscape:export-ydpi="93.150002"
   xmlns:inkscape="http://www.inkscape.org/namespaces/inkscape"
   xmlns:sodipodi="http://sodipodi.sourceforge.net/DTD/sodipodi-0.dtd"
   xmlns="http://www.w3.org/2000/svg"
   xmlns:svg="http://www.w3.org/2000/svg">
  <sodipodi:namedview
     id="namedview1"
     pagecolor="#ffffff"
     bordercolor="#666666"
     borderopacity="1.0"
     inkscape:showpageshadow="2"
     inkscape:pageopacity="0.0"
     inkscape:pagecheckerboard="0"
     inkscape:deskcolor="#d1d1d1"
     inkscape:document-units="mm"
     inkscape:zoom="4.8"
     inkscape:cx="33.229167"
     inkscape:cy="51.875"
     inkscape:window-width="1269"
     inkscape:window-height="608"
     inkscape:window-x="259"
     inkscape:window-y="481"
     inkscape:window-maximized="0"
     inkscape:current-layer="layer1" />
  <defs
     id="defs1">
    <rect
       x="109.87957"
       y="198.53239"
       width="460.745"
       height="594.34857"
       id="rect1" />
    <rect
       x="109.87957"
       y="198.53239"
       width="460.745"
       height="594.34857"
       id="rect1-7" />
  </defs>
  <g
     inkscape:label="Layer 1"
     inkscape:groupmode="layer"
     id="layer1"
     transform="translate(-31.946927,-62.038515)">
    <path
       id="path3"
       style="font-size:128px;line-height:1.25;font-family:'Chess Merida Unicode';-inkscape-font-specification:'Chess Merida Unicode, Normal';font-variant-ligatures:none;white-space:pre;fill:#ffffff;fill-opacity:1;stroke-width:0.264583"
       d="m 37.155911,62.038515 c -0.110243,1.708766 0.126778,3.367928 0.711068,4.977476 -0.187415,0.187413 -0.341754,0.352777 -0.463021,0.496094 -0.09922,0.121266 -0.181901,0.220485 -0.248047,0.297656 -0.06614,0.06614 -0.148828,0.165365 -0.248046,0.297656 -0.132292,0.165362 -0.226,0.292143 -0.28112,0.380339 -0.0441,0.07717 -0.137806,0.225996 -0.28112,0.446484 -0.209463,0.319704 -0.347266,0.650433 -0.413411,0.992188 -0.07717,0.496091 -0.115756,0.942578 -0.115756,1.339453 -0.0882,0.915016 -0.804777,2.248958 -2.149739,4.001823 -1.146527,1.521351 -1.719792,2.745052 -1.719792,3.671093 0,0.650434 0.08268,1.256771 0.248047,1.819011 0.176387,0.562237 0.545703,1.124479 1.107943,1.686719 0.275606,0.26458 0.72209,0.51263 1.339453,0.74414 0.363799,0.02205 0.777213,-0.03307 1.240234,-0.165364 0.341752,0.628382 0.821309,0.926041 1.438672,0.892968 0.396872,-0.02205 0.700043,-0.137805 0.909505,-0.347265 0.15434,-0.154342 0.341752,-0.440973 0.56224,-0.859896 0.418923,-0.79375 0.666969,-1.240234 0.74414,-1.339453 1.047309,-1.5875 2.739541,-2.800175 5.076693,-3.638021 0.485069,-0.209463 0.931553,-0.47956 1.339453,-0.810286 0.0441,0.628382 -0.07717,1.328428 -0.363802,2.10013 -0.275608,0.771699 -0.661461,1.41111 -1.157552,1.918229 -0.859896,0.892966 -1.620576,1.681207 -2.282031,2.364713 -0.661459,0.672481 -1.080384,1.185112 -1.256771,1.537891 -0.385852,0.694529 -0.661458,1.28433 -0.826823,1.769401 -0.165364,0.485069 -0.270097,0.859896 -0.314193,1.124479 -0.06614,0.330727 -0.104732,0.766189 -0.115755,1.30638 0,0.54019 0.04961,0.810287 0.148828,0.810287 h 11.095964 6.664192 2.579688 v -3.604948 c 0,-1.477256 -0.06063,-3.081295 -0.181901,-4.812109 -0.110244,-1.74184 -0.385853,-3.401002 -0.826823,-4.977474 -0.38585,-1.35599 -0.903994,-2.640325 -1.554427,-3.852995 -0.639411,-1.212673 -1.32292,-2.248961 -2.050521,-3.108854 -1.036286,-1.223698 -2.293059,-2.226911 -3.770312,-3.009635 -1.477257,-0.782728 -3.081296,-1.229212 -4.81211,-1.339454 -0.518144,-1.014235 -1.218186,-1.830035 -2.10013,-2.447398 -1.069358,0.771702 -1.78594,1.780429 -2.14974,3.026174 -1.488281,-1.675693 -3.329344,-2.904905 -5.523177,-3.687632 z" />
    <text
       xml:space="preserve"
       transform="scale(0.26458333)"
       id="text1"
       style="font-size:128px;line-height:1.25;font-family:'Chess Merida Unicode';-inkscape-font-specification:'Chess Merida Unicode, Normal';font-variant-ligatures:none;white-space:pre;shape-inside:url(#rect1);display:inline"><tspan
         x="109.87891"
         y="326.12999"
         id="tspan2">♘</tspan></text>
  </g>
</svg>
