<?xml version="1.0" encoding="UTF-8" standalone="no"?>
<!-- Created with Inkscape (http://www.inkscape.org/) -->

<svg
   width="27.086718mm"
   height="27.121704mm"
   viewBox="0 0 27.086718 27.121704"
   version="1.1"
   id="svg1"
   inkscape:version="1.3.2 (091e20e, 2023-11-25, custom)"
   sodipodi:docname="white_bishop.svg"
   inkscape:export-filename="white_bishop.png"
   inkscape:export-xdpi="97.39801"
   inkscape:export-ydpi="97.39801"
   xmlns:inkscape="http://www.inkscape.org/namespaces/inkscape"
   xmlns:sodipodi="http://sodipodi.sourceforge.net/DTD/sodipodi-0.dtd"
   xmlns="http://www.w3.org/2000/svg"
   xmlns:svg="http://www.w3.org/2000/svg">
  <sodipodi:namedview
     id="namedview1"
     pagecolor="#ffffff"
     bordercolor="#666666"
     borderopacity="1.0"
     inkscape:showpageshadow="2"
     inkscape:pageopacity="0.0"
     inkscape:pagecheckerboard="0"
     inkscape:deskcolor="#d1d1d1"
     inkscape:document-units="mm"
     inkscape:zoom="4.8"
     inkscape:cx="46.979167"
     inkscape:cy="50.3125"
     inkscape:window-width="1920"
     inkscape:window-height="1137"
     inkscape:window-x="-8"
     inkscape:window-y="-8"
     inkscape:window-maximized="1"
     inkscape:current-layer="layer1" />
  <defs
     id="defs1">
    <rect
       x="162.32208"
       y="176.05704"
       width="479.47449"
       height="455.75049"
       id="rect1" />
    <rect
       x="162.32208"
       y="176.05704"
       width="479.47449"
       height="455.75049"
       id="rect1-8" />
  </defs>
  <g
     inkscape:label="Layer 1"
     inkscape:groupmode="layer"
     id="layer1"
     transform="translate(-46.392861,-56.661424)">
    <path
       style="font-size:128px;line-height:1.25;font-family:'Chess Merida Unicode';-inkscape-font-specification:'Chess Merida Unicode, Normal';font-variant-ligatures:none;white-space:pre;fill:#ffffff;fill-opacity:1;stroke-width:0.264583"
       d="m 60.514997,78.952573 q 0,1.091406 0.496094,1.852083 0.51263,0.777214 1.091406,1.207162 0.909505,0.661458 2.66237,0.661458 0.429948,0 1.686719,-0.181901 1.02526,-0.165364 1.653645,-0.248047 0.628386,-0.06615 0.84336,-0.115755 0.628385,-0.08268 1.322916,0.03307 0.264584,0.06615 0.578777,0.115755 0.330729,0.06615 0.545703,0.264584 l 0.79375,-1.289844 q -0.677995,-0.347266 -1.438672,-0.479558 -1.256771,-0.214973 -2.199349,-0.09922 -0.28112,0.03307 -0.744141,0.165364 -0.446484,0.132292 -1.223698,0.248047 -1.670182,0.264584 -1.769401,0.264584 -0.644922,0 -1.124479,-0.165365 -0.479557,-0.165365 -0.859896,-0.363802 -0.876432,-0.396875 -1.785937,-1.86862 z"
       id="path13" />
    <path
       style="font-size:128px;line-height:1.25;font-family:'Chess Merida Unicode';-inkscape-font-specification:'Chess Merida Unicode, Normal';font-variant-ligatures:none;white-space:pre;fill:#ffffff;fill-opacity:1;stroke-width:0.264583"
       d="m 59.936221,80.821193 q -0.23151,0.942578 -0.562239,1.30638 -0.33073,0.363802 -0.876433,0.760677 -0.595312,0.413412 -1.405599,0.694531 -0.810286,0.297657 -1.802474,0.148829 l -4.646744,-0.644922 q -0.28112,-0.03307 -0.512631,0 -0.214973,0.03307 -0.413411,0.03307 -0.347266,0 -0.892969,0.148828 -0.529166,0.165364 -0.826823,0.463021 L 46.392862,81.10231 q 0.297656,-0.33073 0.529167,-0.463021 0.23151,-0.132292 0.545703,-0.28112 0.959114,-0.446484 2.050521,-0.545703 0.46302,-0.03307 0.909505,-0.01654 0.446484,0.01654 0.926041,-0.03307 0.892969,0.148828 1.785938,0.281119 0.909505,0.115756 1.81901,0.248047 0.992188,0 1.339453,-0.198437 0.181901,-0.09922 0.578776,-0.363802 0.396875,-0.264584 0.79375,-0.777214 -0.876432,-0.09922 -1.785937,-0.330729 -0.909505,-0.248047 -1.604037,-0.51263 l 1.719792,-4.266406 Q 54.7107,73.098663 54.19807,72.652179 53.68544,72.189158 53.387784,71.593845 52.957836,70.833168 52.825544,70.1221 q -0.115755,-0.711067 -0.09922,-1.273307 0.01654,-0.992187 0.463021,-2.182812 0.463021,-1.207162 1.719792,-2.14974 1.041797,-0.79375 2.033984,-1.637109 0.992188,-0.84336 1.967839,-1.967839 -1.223698,-0.628385 -1.223698,-2.000911 0,-0.926042 0.644922,-1.5875 0.661458,-0.661458 1.604036,-0.661458 0.926042,0 1.5875,0.661458 0.661458,0.661458 0.661458,1.5875 0,1.355989 -1.223697,2.000911 0.959114,1.124479 1.934765,1.967839 0.992188,0.843359 2.067057,1.637109 1.240235,0.942578 1.686719,2.14974 0.446485,1.190625 0.479557,2.182812 0,0.56224 -0.115755,1.273307 -0.115755,0.711068 -0.529166,1.471745 -0.33073,0.595313 -0.84336,1.058334 -0.496094,0.446484 -1.769401,1.190625 l 1.719792,4.266406 q -0.727604,0.264583 -1.63711,0.51263 -0.909505,0.23151 -1.752864,0.330729 0.380338,0.51263 0.777213,0.777214 0.396875,0.264583 0.595313,0.363802 0.347266,0.198437 1.339453,0.198437 0.892969,-0.132291 1.785938,-0.248047 0.909505,-0.132291 1.81901,-0.281119 0.446484,0.04961 0.892969,0.03307 0.46302,-0.01654 0.942578,0.01654 1.058333,0.09922 2.050521,0.545703 0.297656,0.148828 0.529166,0.28112 0.248047,0.132291 0.545703,0.463021 l -1.620573,2.629297 Q 71.56135,83.43395 71.015647,83.268586 70.48648,83.119758 70.155751,83.119758 q -0.214974,0 -0.446484,-0.03307 -0.214974,-0.03307 -0.496094,0 l -4.630208,0.644922 q -0.992188,0.148828 -1.852083,-0.132292 -0.84336,-0.28112 -1.389063,-0.744141 -0.545703,-0.446484 -0.876432,-0.777213 -0.314193,-0.314193 -0.529166,-1.256771 z"
       id="path12" />
    <path
       style="font-size:128px;line-height:1.25;font-family:'Chess Merida Unicode';-inkscape-font-specification:'Chess Merida Unicode, Normal';font-variant-ligatures:none;white-space:pre;fill:#ffffff;fill-opacity:1;stroke-width:0.264583"
       d="m 59.340909,78.952573 h -0.529167 q -0.926042,1.488281 -1.769401,1.86862 -0.396875,0.198437 -0.876432,0.363802 -0.479558,0.165365 -1.107943,0.165365 -0.115755,0 -1.769401,-0.264584 -0.79375,-0.115755 -1.256771,-0.248047 -0.463021,-0.132291 -0.727604,-0.165364 -0.942578,-0.115755 -2.199349,0.09922 -0.760677,0.132292 -1.422135,0.479558 l 0.79375,1.289844 q 0.198437,-0.198438 0.51263,-0.264584 0.330729,-0.04961 0.595312,-0.115755 0.694532,-0.115755 1.322917,-0.03307 0.214974,0.04961 0.843359,0.115755 0.628386,0.08268 1.670183,0.248047 1.240234,0.181901 1.686718,0.181901 1.736328,0 2.66237,-0.661458 0.56224,-0.429948 1.058333,-1.207162 0.512631,-0.760677 0.512631,-1.852083 z"
       id="path11" />
    <path
       style="font-size:128px;line-height:1.25;font-family:'Chess Merida Unicode';-inkscape-font-specification:'Chess Merida Unicode, Normal';font-variant-ligatures:none;white-space:pre;fill:#ffffff;fill-opacity:1;stroke-width:0.264583"
       d="m 59.936221,72.718328 q 1.604037,0 3.075781,0.248047 1.620573,-0.578776 2.348177,-1.802474 0.628386,-1.058333 0.628386,-2.33164 0,-0.760677 -0.380339,-1.670183 -0.380338,-0.926041 -1.240234,-1.670182 -0.975651,-0.810286 -2.133203,-1.769401 -1.157552,-0.975651 -2.298568,-2.265495 -1.157552,1.289844 -2.315104,2.265495 -1.157552,0.959115 -2.116667,1.769401 -0.876432,0.744141 -1.25677,1.670182 -0.363803,0.909506 -0.363803,1.670183 0,1.273307 0.611849,2.33164 0.711068,1.223698 2.364714,1.802474 1.455208,-0.248047 3.075781,-0.248047 z"
       id="path10" />
    <path
       style="font-size:128px;line-height:1.25;font-family:'Chess Merida Unicode';-inkscape-font-specification:'Chess Merida Unicode, Normal';font-variant-ligatures:none;white-space:pre;fill:#ffffff;fill-opacity:1;stroke-width:0.264583"
       d="m 59.936221,75.727964 q 1.934766,0 3.720703,0.380338 l -0.79375,-2.033984 q -1.455208,-0.23151 -2.926953,-0.23151 -1.504818,0 -2.943489,0.23151 l -0.79375,2.033984 q 1.769401,-0.380338 3.737239,-0.380338 z"
       id="path9" />
    <path
       style="font-size:128px;line-height:1.25;font-family:'Chess Merida Unicode';-inkscape-font-specification:'Chess Merida Unicode, Normal';font-variant-ligatures:none;white-space:pre;fill:#ffffff;fill-opacity:1;stroke-width:0.264583"
       d="m 59.936221,60.034865 q 1.124479,0 1.124479,-1.124479 0,-1.124479 -1.124479,-1.124479 -1.124479,0 -1.124479,1.124479 0,1.124479 1.124479,1.124479 z"
       id="path8" />
    <path
       style="font-size:128px;line-height:1.25;font-family:'Chess Merida Unicode';-inkscape-font-specification:'Chess Merida Unicode, Normal';font-variant-ligatures:none;white-space:pre;fill:#ffffff;fill-opacity:1;stroke-width:0.264583"
       d="m 59.936221,78.043068 q 1.124479,0 2.182813,-0.181901 1.074869,-0.198438 2.067057,-0.463021 -1.934766,-0.51263 -4.24987,-0.51263 -2.348177,0 -4.24987,0.51263 0.959115,0.264583 2.033985,0.463021 1.07487,0.181901 2.215885,0.181901 z"
       id="path7" />
    <path
       style="font-size:128px;line-height:1.25;font-family:'Chess Merida Unicode';-inkscape-font-specification:'Chess Merida Unicode, Normal';font-variant-ligatures:none;white-space:pre;fill:#ffffff;fill-opacity:1;stroke-width:0.264583"
       d="m 59.340909,68.484995 -1.372526,-0.01654 q -0.56224,0 -0.56224,-0.56224 v 0 q 0,-0.56224 0.56224,-0.56224 h 1.372526 V 65.92184 q 0,-0.578776 0.595312,-0.578776 v 0 q 0.578776,0 0.578776,0.578776 v 1.422135 h 1.422136 q 0.545703,0 0.545703,0.56224 v 0 q 0,0.56224 -0.545703,0.56224 h -1.422136 v 1.355989 q 0,0.595313 -0.578776,0.595313 v 0 q -0.595312,0 -0.595312,-0.595313 z"
       id="text1-1" />
    <text
       xml:space="preserve"
       transform="matrix(0.26458333,0,0,0.26458333,0.05512175,3.8888885e-8)"
       id="text1"
       style="font-size:128px;line-height:1.25;font-family:'Chess Merida Unicode';-inkscape-font-specification:'Chess Merida Unicode, Normal';font-variant-ligatures:none;white-space:pre;shape-inside:url(#rect1);display:inline"><tspan
         x="162.32227"
         y="303.65342"
         id="tspan2">♗</tspan></text>
  </g>
</svg>
