<?xml version="1.0" encoding="UTF-8" standalone="no"?>
<!-- Created with Inkscape (http://www.inkscape.org/) -->

<svg
   width="30.592447mm"
   height="28.310417mm"
   viewBox="0 0 30.592447 28.310417"
   version="1.1"
   id="svg1"
   inkscape:version="1.3.2 (091e20e, 2023-11-25, custom)"
   sodipodi:docname="white_queen.svg"
   inkscape:export-filename="white_queen.png"
   inkscape:export-xdpi="93.309998"
   inkscape:export-ydpi="93.309998"
   xmlns:inkscape="http://www.inkscape.org/namespaces/inkscape"
   xmlns:sodipodi="http://sodipodi.sourceforge.net/DTD/sodipodi-0.dtd"
   xmlns="http://www.w3.org/2000/svg"
   xmlns:svg="http://www.w3.org/2000/svg">
  <sodipodi:namedview
     id="namedview1"
     pagecolor="#ffffff"
     bordercolor="#666666"
     borderopacity="1.0"
     inkscape:showpageshadow="2"
     inkscape:pageopacity="0.0"
     inkscape:pagecheckerboard="0"
     inkscape:deskcolor="#d1d1d1"
     inkscape:document-units="mm"
     inkscape:zoom="0.80087682"
     inkscape:cx="261.58829"
     inkscape:cy="305.29039"
     inkscape:window-width="1499"
     inkscape:window-height="1093"
     inkscape:window-x="260"
     inkscape:window-y="19"
     inkscape:window-maximized="0"
     inkscape:current-layer="layer1" />
  <defs
     id="defs1">
    <rect
       x="128.60904"
       y="221.00777"
       width="332.13596"
       height="427.03195"
       id="rect1" />
    <rect
       x="128.60904"
       y="221.00777"
       width="332.13596"
       height="427.03195"
       id="rect1-4" />
  </defs>
  <g
     inkscape:label="Layer 1"
     inkscape:groupmode="layer"
     id="layer1"
     transform="translate(-35.681543,-67.876762)">
    <path
       id="path19"
       style="font-size:128px;line-height:1.25;font-family:'Chess Merida Unicode';-inkscape-font-specification:'Chess Merida Unicode, Normal';font-variant-ligatures:none;white-space:pre;fill:#ffffff;stroke-width:0.264583"
       d="m 50.96123,67.876765 c -0.628383,0 -1.163064,0.22048 -1.604037,0.66145 -0.429948,0.44098 -0.644921,0.97014 -0.644921,1.5875 0,0.62839 0.214973,1.16307 0.644921,1.60404 0.440973,0.44097 0.975654,0.66146 1.604037,0.66146 0.61736,0 1.146529,-0.22049 1.5875,-0.66146 0.451995,-0.44097 0.677995,-0.97565 0.677995,-1.60404 0,-0.61736 -0.226,-1.14652 -0.677995,-1.5875 -0.440971,-0.44097 -0.97014,-0.66145 -1.5875,-0.66145 z m -6.945313,0.84336 c -0.628385,0 -1.163063,0.22048 -1.604036,0.66145 -0.44097,0.44098 -0.661458,0.97014 -0.661458,1.5875 0,0.62839 0.220488,1.16307 0.661458,1.60404 0.440973,0.42995 0.975651,0.64492 1.604036,0.64492 0.617361,0 1.14653,-0.21497 1.5875,-0.64492 0.440973,-0.44097 0.661459,-0.97565 0.661459,-1.60404 0,-0.61736 -0.220486,-1.14652 -0.661459,-1.5875 -0.44097,-0.44097 -0.970139,-0.66145 -1.5875,-0.66145 z m 13.890625,0 c -0.628383,0 -1.163063,0.22048 -1.604036,0.66145 -0.429948,0.44098 -0.644922,0.97014 -0.644922,1.5875 0,0.62839 0.214974,1.16307 0.644922,1.60404 0.440973,0.42995 0.975653,0.64492 1.604036,0.64492 0.628386,0 1.163066,-0.21497 1.604037,-0.64492 0.440973,-0.44097 0.661458,-0.97565 0.661458,-1.60404 0,-0.61736 -0.220485,-1.14652 -0.661458,-1.5875 -0.440971,-0.44097 -0.975651,-0.66145 -1.604037,-0.66145 z m -19.976041,1.80247 c -0.628386,0 -1.163064,0.226 -1.604037,0.67799 -0.429948,0.44098 -0.644921,0.97014 -0.644921,1.5875 0,0.62839 0.214973,1.16307 0.644921,1.60404 0.440973,0.42995 0.975651,0.64492 1.604037,0.64492 0.628385,0 1.163066,-0.21497 1.604036,-0.64492 0.440973,-0.44097 0.661459,-0.97565 0.661459,-1.60404 0,-0.61736 -0.220486,-1.14652 -0.661459,-1.5875 -0.44097,-0.45199 -0.975651,-0.67799 -1.604036,-0.67799 z m 26.094531,0 c -0.628383,0 -1.163064,0.226 -1.604037,0.67799 -0.44097,0.44098 -0.661458,0.97014 -0.661458,1.5875 0,0.62839 0.220488,1.16307 0.661458,1.60404 0.440973,0.42995 0.975654,0.64492 1.604037,0.64492 0.61736,0 1.146529,-0.21497 1.5875,-0.64492 0.440973,-0.44097 0.661458,-0.97565 0.661458,-1.60404 0,-0.61736 -0.220485,-1.14652 -0.661458,-1.5875 -0.440971,-0.45199 -0.97014,-0.67799 -1.5875,-0.67799 z m -13.626042,1.88516 -1.852083,9.83919 -3.45612,-9.14466 -1.124479,0.19843 -0.09922,9.09506 -4.530989,-7.63985 -0.810287,0.3142 1.405599,10.28567 1.455209,2.53008 0.46302,2.59622 -1.041796,3.96875 c 0.496093,0.4961 1.692232,0.90951 3.588411,1.24024 1.896179,0.33073 4.095533,0.49609 6.598047,0.49609 2.458418,0 4.630211,-0.15985 6.515364,-0.47956 1.885156,-0.3197 3.097832,-0.71657 3.638021,-1.19062 l -1.07487,-4.01836 0.463021,-2.6293 1.471745,-2.53007 1.372526,-10.23607 -0.777214,-0.3638 -4.547526,7.65638 -0.09922,-9.09506 -1.141016,-0.19843 -3.423047,9.11159 -1.852083,-9.80612 z" />
    <text
       xml:space="preserve"
       transform="scale(0.26458333)"
       id="text1"
       style="font-size:128px;line-height:1.25;font-family:'Chess Merida Unicode';-inkscape-font-specification:'Chess Merida Unicode, Normal';font-variant-ligatures:none;white-space:pre;shape-inside:url(#rect1);display:inline"><tspan
         x="128.60938"
         y="348.6046"
         id="tspan2">♕</tspan></text>
  </g>
</svg>
